<svg xmlns="http://www.w3.org/2000/svg" data-name="Layer 1" viewBox="0 0 128 160" x="0px" y="0px"><title>Miscellaneous 66 final</title><path d="M74.50226,38.08929a13.92687,13.92687,0,0,1-15.276,2.5451c-2.05719.39368-4.04364.71356-5.916.9433a17.92808,17.92808,0,0,0,23.92242-.563,17.82357,17.82357,0,0,0,4.65649-7.18683c-1.73529.74561-3.60028,1.47272-5.56909,2.1701A13.96371,13.96371,0,0,1,74.50226,38.08929Z"/><path d="M42.98981,38.90741a37.818,37.818,0,0,0,7.24451-.11188c.06458-.00616.13123-.01385.19611-.0202a101.62522,101.62522,0,0,0,16.62006-3.19574c3.1532-.86133,6.27478-1.84381,9.34314-2.97144a73.86119,73.86119,0,0,0,9.00659-3.91492c5.85425-3.09009,8.23914-5.78455,7.5058-8.48053-.73328-2.69641-4.15-3.80847-10.761-3.49109-.91357.0434-1.88367.12427-2.88159.22479a17.81,17.81,0,0,0-1.18109-1.411,17.945,17.945,0,0,0-30.96082,10.182c-.9231.426-1.80542.85541-2.62451,1.28778-5.85425,3.09009-8.23907,5.78455-7.50574,8.48053C37.5213,37.4361,39.45709,38.556,42.98981,38.90741Zm4.15839-8.748c.07214.56232.16156,1.123.28632,1.67828,1.25818-.10645,2.58716-.261,3.976-.4613A13.98164,13.98164,0,0,1,78.296,23.706q1.97662-.88449,3.6236-1.77814c-.13324-.38574-.29944-.76184-.459-1.13989a34.59262,34.59262,0,0,1,4.69409-.0448,6.37983,6.37983,0,0,1,2.76758.57739,10.86229,10.86229,0,0,1-2.5459,2.16779,43.64389,43.64389,0,0,1-5.48944,2.95007,97.29292,97.29292,0,0,1-14.88733,5.276,97.30905,97.30905,0,0,1-15.49078,3.02344,43.55308,43.55308,0,0,1-6.24579.24963c-.05994-.00281-.11139-.00793-.16986-.01111a8.02254,8.02254,0,0,1-3.01642-.54108c-.03308-.01624-.05786-.03375-.08728-.05054C41.53394,33.47412,43.63269,31.93073,47.14819,30.15942Z"/><path d="M111.44452,68.55835a15.78124,15.78124,0,0,0,8.275-2.38672,17.916,17.916,0,0,0,6.447-22.95465,15.39225,15.39225,0,0,0-13.70813-8.5636h-.00018a15.78283,15.78283,0,0,0-8.27527,2.38678,17.916,17.916,0,0,0-6.447,22.95459A15.3927,15.3927,0,0,0,111.44452,68.55835ZM100.02911,50.21887l6.56677,1.913a2.00252,2.00252,0,0,0,1.1153-3.84662l-6.56909-1.9137a13.73066,13.73066,0,0,1,2.26776-3.51166l12.13354,3.53479a2.00252,2.00252,0,0,0,1.1153-3.84662l-9.26721-2.69977a11.60407,11.60407,0,0,1,5.06641-1.1889,11.35169,11.35169,0,0,1,10.14789,6.37732,13.38035,13.38035,0,0,1,1.26752,7.95618l-8.486-2.47186a2.00253,2.00253,0,0,0-1.11536,3.84662l8.48834,2.4726a13.36769,13.36769,0,0,1-5.13489,5.91925,11.74791,11.74791,0,0,1-6.18085,1.79279,11.27569,11.27569,0,0,1-9.60181-5.46155l8.27966,2.41168a2.00253,2.00253,0,0,0,1.11536-3.84662L100.0672,54.4021A13.76123,13.76123,0,0,1,100.02911,50.21887Z"/><path d="M7.53662,58.22754A4.00175,4.00175,0,0,0,10.826,61.5946l2.47968.41925.36566,2.4762a3.99423,3.99423,0,0,0,7.493,1.27484l1.16492-2.22516,2.48566.42029a4.00566,4.00566,0,0,0,3.51624-6.75745l-1.74969-1.78534,1.09436-2.09045a4.00815,4.00815,0,0,0-3.40106-5.98792l-.076-.00073q-.17093,0-.34192.01471a3.96583,3.96583,0,0,0-1.50116.43646L20.16846,48.8736,18.4057,47.07507a3.99693,3.99693,0,0,0-6.805,3.39392l.36487,2.47083L9.71906,54.05353A4.00839,4.00839,0,0,0,7.53662,58.22754ZM16.3454,55.238l-.791-5.35559,3.7912,3.86829L24.2,51.3443l-2.51135,4.79718,3.7912,3.86835-5.34332-.9035L17.62518,63.9035l-.791-5.35559-5.34332-.90356Z"/><path d="M102.41772,19.94977a3.99064,3.99064,0,0,0,.66614-.05609l2.48572-.42029,1.16492,2.2251a3.99443,3.99443,0,0,0,7.493-1.27478l.36566-2.4762,2.47968-.41925a4.00859,4.00859,0,0,0,1.10706-7.54108L115.93329,8.8736l.34192-2.31506a4.01071,4.01071,0,0,0-3.82477-4.74731c-.035-.00092-.06982-.00134-.1048-.00134-.05957,0-.11926.00134-.17877.004a3.97344,3.97344,0,0,0-2.3042.86182,4.01457,4.01457,0,0,0-.36951.33307l-1.7627,1.79852-2.25983-1.12012a4.00157,4.00157,0,0,0-5.311,5.45215l1.15778,2.21161-1.74969,1.78534a4.00713,4.00713,0,0,0,2.85,6.81354ZM103.69879,7.278l4.85443,2.40643,3.7912-3.86835-.791,5.35559,4.85449,2.40643-5.34332.9035-.791,5.35559L107.76233,15.04l-5.34332.9035,3.7912-3.86829Z"/><path d="M1.99841,128a2.00081,2.00081,0,0,0,1.99841-2.00305l.05231-4.006a56.44739,56.44739,0,0,1,1.24524-9.90948c10.69373,3.60956,33.23267,5.90344,58.655,5.90344a2.003,2.003,0,0,0,0-4.006c-24.95459,0-47.70349-2.30988-57.68048-5.79846q.78433-2.69284,1.82452-5.27484c11.60956,3.13385,32.77576,5.06427,55.856,5.06427s44.24646-1.93042,55.856-5.06427a56.327,56.327,0,0,1,4.04437,19.08539h.05225v4.006a1.99845,1.99845,0,1,0,3.99689,0s-.03485-4.37622-.08417-4.55035C126.43024,88.388,98.33,61.90045,63.9494,61.90045c-34.4035,0-62.53461,26.51886-63.88446,59.60828C.02649,121.66388,0,125.99695,0,125.99695A2.00081,2.00081,0,0,0,1.99841,128Zm61.951-62.09351A60.742,60.742,0,0,1,104.89233,81.591,323.85457,323.85457,0,0,1,63.9494,83.93365,323.85425,323.85425,0,0,1,23.00653,81.591,60.74192,60.74192,0,0,1,63.9494,65.90649ZM12.65814,93.95734c12.18066,2.50513,31.236,3.99744,51.29126,3.99744a2.003,2.003,0,0,0,0-4.006c-18.92035,0-36.89923-1.33185-48.86414-3.59064a58.70722,58.70722,0,0,1,4.33832-5.22626c12.046,1.81042,27.82263,2.80786,44.52582,2.80786s32.4798-.99744,44.52582-2.80786a58.05823,58.05823,0,0,1,9.67365,14.06854c-11.39246,2.95184-31.83386,4.76343-54.19946,4.76343S21.14246,102.15222,9.75,99.20038A57.37159,57.37159,0,0,1,12.65814,93.95734Z"/><path d="M6.842,30.75592a15.34215,15.34215,0,0,0,22.48657-4.03345A17.91409,17.91409,0,0,0,25.158,3.244,15.555,15.555,0,0,0,15.69415,0h-.0014A15.4522,15.4522,0,0,0,2.67151,7.27753,17.91385,17.91385,0,0,0,6.842,30.75592Zm6.20081-13.25409a2.00175,2.00175,0,0,0-2.30518-1.64117l-6.749,1.1441a13.73669,13.73669,0,0,1,.54614-4.24017L16.6792,10.79828a2.00321,2.00321,0,0,0-.63855-3.9552L6.844,8.33209a11.32479,11.32479,0,0,1,8.84912-4.326,11.61489,11.61489,0,0,1,7.04865,2.43018,13.35636,13.35636,0,0,1,4.608,6.63477l-8.71985,1.45123a2.00364,2.00364,0,0,0,.32513,3.97968,2.045,2.045,0,0,0,.33-.0274L28.01263,17.022a13.39234,13.39234,0,0,1-2.05359,7.5426,11.30122,11.30122,0,0,1-15.6778,3.69135l8.0802-1.54968a2.00294,2.00294,0,0,0-.75177-3.93469L6.63025,24.87726a13.7227,13.7227,0,0,1-1.9718-3.92267l6.746-1.14355A2.00325,2.00325,0,0,0,13.04279,17.50183Z"/><text x="0" y="143" fill="#000000" font-size="5px" font-weight="bold" font-family="'Helvetica Neue', Helvetica, Arial-Unicode, Arial, Sans-serif">Created by priyanka</text><text x="0" y="148" fill="#000000" font-size="5px" font-weight="bold" font-family="'Helvetica Neue', Helvetica, Arial-Unicode, Arial, Sans-serif">from the Noun Project</text></svg>